<svg width="108" height="88" viewBox="0 0 108 88" fill="none" xmlns="http://www.w3.org/2000/svg">
<path fill-rule="evenodd" clip-rule="evenodd" d="M103.96 5.3281C109.907 11.7782 109.174 21.5452 102.322 27.1434L80.0864 45.3095C70.2215 53.3692 55.6823 53.7469 45.3602 46.2116L36.7302 39.9117L44.4893 68.3156C46.7489 76.5872 41.4572 85.0169 32.6701 87.1439C23.8829 89.2709 14.9278 84.2897 12.6683 76.0181L0.924289 33.0266C-5.57365 9.23945 23.6029 -8.8106 44.2211 6.24092L61.944 19.1788L80.7851 3.7856C87.6372 -1.81258 98.013 -1.12198 103.96 5.3281Z" fill="url(#paint0_linear_910_413)" fill-opacity="0.85"/>
<path opacity="0.8" d="M107.957 53.8766C107.957 60.2617 102.781 65.4378 96.3957 65.4378C90.0106 65.4378 84.8345 60.2617 84.8345 53.8766C84.8345 47.4916 90.0106 42.3154 96.3957 42.3154C102.781 42.3154 107.957 47.4916 107.957 53.8766Z" fill="#306BFF"/>
<path d="M98.7079 75.0246C98.7079 78.8557 95.6022 81.9613 91.7712 81.9613C87.9402 81.9613 84.8345 78.8557 84.8345 75.0246C84.8345 71.1936 87.9402 68.0879 91.7712 68.0879C95.6022 68.0879 98.7079 71.1936 98.7079 75.0246Z" fill="#4BA0FF"/>
<path d="M83.4729 83.1268C83.4729 85.1701 81.8165 86.8264 79.7733 86.8264C77.7301 86.8264 76.0737 85.1701 76.0737 83.1268C76.0737 81.0836 77.7301 79.4272 79.7733 79.4272C81.8165 79.4272 83.4729 81.0836 83.4729 83.1268Z" fill="#66A8FF"/>
<defs>
<linearGradient id="paint0_linear_910_413" x1="53.9908" y1="0" x2="53.9908" y2="87.6349" gradientUnits="userSpaceOnUse">
<stop stop-color="#306BFF"/>
<stop offset="1" stop-color="#27B3FF"/>
</linearGradient>
</defs>
</svg>
