<svg width="1761" height="234" viewBox="0 0 1761 234" fill="none" xmlns="http://www.w3.org/2000/svg">
<path d="M0.717773 46.4703C86.3845 134.804 349.018 267.57 714.218 91.9703C1170.72 -127.53 1596.22 108.971 1713.22 188.971" stroke="#608DFF" stroke-width="2" stroke-dasharray="20 20"/>
<g clip-path="url(#clip0_884_290)">
<path d="M1735.07 194.271C1734.78 194.088 1733.54 193.309 1733.08 193.049L1726.89 189.327L1723.72 163.317L1717.1 159.096L1713.9 181.458L1703.55 175.07L1702.51 166.398L1697.02 162.895L1692.87 174.207C1692.84 174.274 1692.83 174.342 1692.81 174.41C1692.81 174.416 1692.81 174.422 1692.8 174.426C1692.75 174.466 1692.69 174.51 1692.64 174.557L1684.09 183.113L1689.55 186.593L1698.03 183.85L1708.09 190.583L1689.14 202.94L1695.78 207.174L1720.67 199.065L1726.66 203.11C1727.09 203.422 1728.32 204.218 1728.6 204.396C1731.17 206.033 1733.49 207.019 1735.51 207.328C1738.93 207.855 1740.51 206.26 1741.15 205.263C1743.17 202.095 1740.89 197.986 1735.07 194.271Z" fill="#608DFF"/>
</g>
<defs>
<clipPath id="clip0_884_290">
<rect width="64" height="64" fill="white" transform="translate(1706.07 144.947) rotate(32.5238)"/>
</clipPath>
</defs>
</svg>
