<svg width="288" height="233" viewBox="0 0 288 233" fill="none" xmlns="http://www.w3.org/2000/svg">
<path fill-rule="evenodd" clip-rule="evenodd" d="M277.274 14.1661C293.136 31.3154 291.179 57.2836 272.904 72.1678L213.6 120.467C187.289 141.896 148.511 142.9 120.981 122.866L97.9639 106.116L118.658 181.635C124.685 203.627 110.571 226.04 87.135 231.695C63.6986 237.35 39.8143 224.106 33.7878 202.114L2.46519 87.8098C-14.8656 24.5655 62.9516 -23.4253 117.943 16.5931L165.212 50.9919L215.464 10.065C233.739 -4.81922 261.412 -2.98308 277.274 14.1661Z" fill="url(#paint0_linear_173_380)" fill-opacity="0.85"/>
<path opacity="0.8" d="M287.933 143.245C287.933 160.221 274.128 173.983 257.098 173.983C240.068 173.983 226.263 160.221 226.263 143.245C226.263 126.268 240.068 112.506 257.098 112.506C274.128 112.506 287.933 126.268 287.933 143.245Z" fill="#306BFF"/>
<path d="M263.265 199.471C263.265 209.657 254.982 217.914 244.764 217.914C234.546 217.914 226.263 209.657 226.263 199.471C226.263 189.286 234.546 181.028 244.764 181.028C254.982 181.028 263.265 189.286 263.265 199.471Z" fill="#4BA0FF"/>
<path d="M222.629 221.016C222.629 226.448 218.212 230.852 212.762 230.852C207.313 230.852 202.895 226.448 202.895 221.016C202.895 215.583 207.313 211.179 212.762 211.179C218.212 211.179 222.629 215.583 222.629 221.016Z" fill="#66A8FF"/>
<defs>
<linearGradient id="paint0_linear_173_380" x1="144" y1="0" x2="144" y2="233" gradientUnits="userSpaceOnUse">
<stop stop-color="#306BFF"/>
<stop offset="1" stop-color="#27B3FF"/>
</linearGradient>
</defs>
</svg>
